<svg width="179" height="30" viewBox="0 0 179 30" fill="none" xmlns="http://www.w3.org/2000/svg">
<path d="M177.125 22.5805C177.08 22.181 176.894 21.8715 176.568 21.6521C176.242 21.4298 175.831 21.3187 175.336 21.3187C174.981 21.3187 174.675 21.3749 174.416 21.4875C174.157 21.5972 173.956 21.7491 173.812 21.9433C173.672 22.1346 173.601 22.3526 173.601 22.5974C173.601 22.8028 173.649 22.98 173.745 23.1291C173.843 23.2782 173.971 23.4034 174.129 23.5047C174.289 23.6032 174.461 23.6862 174.644 23.7537C174.827 23.8184 175.002 23.8719 175.171 23.9141L176.015 24.1335C176.291 24.201 176.574 24.2925 176.863 24.4078C177.153 24.5232 177.422 24.6751 177.669 24.8636C177.917 25.0521 178.117 25.2856 178.269 25.5642C178.423 25.8427 178.501 26.1761 178.501 26.5643C178.501 27.0539 178.374 27.4886 178.121 27.8684C177.871 28.2482 177.506 28.5478 177.028 28.7673C176.553 28.9867 175.977 29.0964 175.302 29.0964C174.655 29.0964 174.095 28.9937 173.622 28.7884C173.15 28.583 172.78 28.2918 172.512 27.9148C172.245 27.535 172.097 27.0848 172.069 26.5643H173.378C173.403 26.8766 173.504 27.1369 173.681 27.3451C173.861 27.5504 174.091 27.7038 174.369 27.8051C174.651 27.9035 174.959 27.9528 175.294 27.9528C175.662 27.9528 175.99 27.8951 176.277 27.7797C176.567 27.6616 176.795 27.4984 176.96 27.2902C177.126 27.0792 177.209 26.833 177.209 26.5517C177.209 26.2957 177.136 26.0861 176.99 25.9229C176.847 25.7597 176.651 25.6246 176.403 25.5177C176.159 25.4108 175.882 25.3166 175.572 25.235L174.551 24.9565C173.859 24.768 173.31 24.4908 172.905 24.1251C172.503 23.7593 172.301 23.2754 172.301 22.6733C172.301 22.1754 172.436 21.7407 172.707 21.3693C172.977 20.9979 173.342 20.7096 173.804 20.5042C174.265 20.296 174.786 20.1919 175.365 20.1919C175.95 20.1919 176.467 20.2946 176.914 20.5C177.364 20.7053 177.719 20.9881 177.978 21.3482C178.236 21.7055 178.371 22.1163 178.383 22.5805H177.125Z" fill="#222222"/>
<path d="M165.335 20.3105V28.9534H164.137L159.744 22.6148H159.663V28.9534H158.359V20.3105H159.566L163.964 26.6577H164.044V20.3105H165.335Z" fill="#222222"/>
<path d="M151.56 24.6315C151.56 25.5543 151.391 26.3477 151.053 27.0117C150.716 27.6728 150.253 28.1821 149.665 28.5394C149.08 28.8939 148.414 29.0711 147.669 29.0711C146.92 29.0711 146.252 28.8939 145.664 28.5394C145.079 28.1821 144.617 27.6714 144.28 27.0075C143.942 26.3435 143.773 25.5515 143.773 24.6315C143.773 23.7087 143.942 22.9167 144.28 22.2556C144.617 21.5916 145.079 21.0823 145.664 20.7279C146.252 20.3705 146.92 20.1919 147.669 20.1919C148.414 20.1919 149.08 20.3705 149.665 20.7279C150.253 21.0823 150.716 21.5916 151.053 22.2556C151.391 22.9167 151.56 23.7087 151.56 24.6315ZM150.268 24.6315C150.268 23.9281 150.154 23.3359 149.926 22.8548C149.701 22.3709 149.392 22.0052 148.998 21.7576C148.607 21.5072 148.164 21.382 147.669 21.382C147.171 21.382 146.726 21.5072 146.335 21.7576C145.944 22.0052 145.635 22.3709 145.407 22.8548C145.182 23.3359 145.069 23.9281 145.069 24.6315C145.069 25.3349 145.182 25.9285 145.407 26.4124C145.635 26.8935 145.944 27.2593 146.335 27.5097C146.726 27.7572 147.171 27.881 147.669 27.881C148.164 27.881 148.607 27.7572 148.998 27.5097C149.392 27.2593 149.701 26.8935 149.926 26.4124C150.154 25.9285 150.268 25.3349 150.268 24.6315Z" fill="#222222"/>
<path d="M136.978 20.3105V28.9534H135.674V20.3105H136.978Z" fill="#222222"/>
<path d="M122.334 21.4331V20.3105H129.023V21.4331H126.326V28.9534H125.026V21.4331H122.334Z" fill="#222222"/>
<path d="M111.016 28.9534H109.632L112.742 20.3105H114.249L117.359 28.9534H115.975L113.531 21.8804H113.464L111.016 28.9534ZM111.248 25.5689H115.738V26.6661H111.248V25.5689Z" fill="#222222"/>
<path d="M98.4271 20.3105L100.833 27.3498H100.93L103.335 20.3105H104.745L101.634 28.9534H100.128L97.0176 20.3105H98.4271Z" fill="#222222"/>
<path d="M91.3018 24.6315C91.3018 25.5543 91.133 26.3477 90.7954 27.0117C90.4578 27.6728 89.995 28.1821 89.407 28.5394C88.8218 28.8939 88.1564 29.0711 87.4108 29.0711C86.6625 29.0711 85.9943 28.8939 85.4063 28.5394C84.8211 28.1821 84.3597 27.6714 84.022 27.0075C83.6844 26.3435 83.5156 25.5515 83.5156 24.6315C83.5156 23.7087 83.6844 22.9167 84.022 22.2556C84.3597 21.5916 84.8211 21.0823 85.4063 20.7279C85.9943 20.3705 86.6625 20.1919 87.4108 20.1919C88.1564 20.1919 88.8218 20.3705 89.407 20.7279C89.995 21.0823 90.4578 21.5916 90.7954 22.2556C91.133 22.9167 91.3018 23.7087 91.3018 24.6315ZM90.0105 24.6315C90.0105 23.9281 89.8965 23.3359 89.6686 22.8548C89.4435 22.3709 89.1341 22.0052 88.7402 21.7576C88.3491 21.5072 87.906 21.382 87.4108 21.382C86.9129 21.382 86.4683 21.5072 86.0773 21.7576C85.6862 22.0052 85.3767 22.3709 85.1488 22.8548C84.9237 23.3359 84.8112 23.9281 84.8112 24.6315C84.8112 25.3349 84.9237 25.9285 85.1488 26.4124C85.3767 26.8935 85.6862 27.2593 86.0773 27.5097C86.4683 27.7572 86.9129 27.881 87.4108 27.881C87.906 27.881 88.3491 27.7572 88.7402 27.5097C89.1341 27.2593 89.4435 26.8935 89.6686 26.4124C89.8965 25.9285 90.0105 25.3349 90.0105 24.6315Z" fill="#222222"/>
<path d="M76.7191 20.3105V28.9534H75.5206L71.1274 22.6148H71.0472V28.9534H69.7432V20.3105H70.9501L75.3475 26.6577H75.4277V20.3105H76.7191Z" fill="#222222"/>
<path d="M62.6644 20.3105V28.9534H61.4659L57.0727 22.6148H56.9925V28.9534H55.6885V20.3105H56.8954L61.2929 26.6577H61.373V20.3105H62.6644Z" fill="#222222"/>
<path d="M48.6185 20.3105V28.9534H47.3145V20.3105H48.6185Z" fill="#222222"/>
<path d="M25.0195 20.3105H26.5008L28.7586 24.2395H28.8514L31.1092 20.3105H32.5905L29.4549 25.5604V28.9534H28.1551V25.5604L25.0195 20.3105Z" fill="#222222"/>
<path d="M13.3496 28.9534V20.3105H18.7683V21.4331H14.6536V24.0665H18.4855V25.1848H14.6536V27.8309H18.8189V28.9534H13.3496Z" fill="#222222"/>
<path d="M0.28418 28.9534V20.3105H1.58821V24.4379H1.69371L5.31883 20.3105H6.96047L3.47462 24.2015L6.97313 28.9534H5.40324L2.60949 25.092L1.58821 26.2652V28.9534H0.28418Z" fill="#222222"/>
<path d="M155.608 9.66486V1.02197H156.912V8.5423H160.829V9.66486H155.608Z" fill="#222222"/>
<path d="M142.847 9.66486H141.463L144.573 1.02197H146.08L149.19 9.66486H147.806L145.362 2.59187H145.295L142.847 9.66486ZM143.079 6.28029H147.569V7.37754H143.079V6.28029Z" fill="#222222"/>
<path d="M129.281 9.66486V1.02197H132.362C133.032 1.02197 133.587 1.13732 134.029 1.36803C134.473 1.59873 134.805 1.91805 135.025 2.326C135.244 2.73114 135.354 3.19958 135.354 3.73132C135.354 4.26024 135.243 4.72587 135.021 5.12819C134.801 5.5277 134.469 5.83858 134.025 6.06084C133.583 6.28311 133.027 6.39424 132.358 6.39424H130.024V5.27168H132.24C132.662 5.27168 133.005 5.21119 133.269 5.09021C133.537 4.96923 133.732 4.79339 133.856 4.56269C133.98 4.33199 134.042 4.05486 134.042 3.73132C134.042 3.40496 133.978 3.12221 133.852 2.88306C133.728 2.64392 133.532 2.46105 133.265 2.33444C133.001 2.20502 132.653 2.14032 132.223 2.14032H130.585V9.66486H129.281ZM133.548 5.76543L135.683 9.66486H134.198L132.105 5.76543H133.548Z" fill="#222222"/>
<path d="M120.902 1.02197H122.21V6.70653C122.21 7.31142 122.068 7.84738 121.784 8.31441C121.5 8.77863 121.1 9.14438 120.585 9.41165C120.07 9.67612 119.467 9.80835 118.775 9.80835C118.085 9.80835 117.483 9.67612 116.969 9.41165C116.454 9.14438 116.054 8.77863 115.77 8.31441C115.486 7.84738 115.344 7.31142 115.344 6.70653V1.02197H116.648V6.60103C116.648 6.99209 116.734 7.33955 116.905 7.64341C117.08 7.94726 117.326 8.1864 117.644 8.36083C117.962 8.53245 118.339 8.61826 118.775 8.61826C119.214 8.61826 119.592 8.53245 119.91 8.36083C120.231 8.1864 120.475 7.94726 120.644 7.64341C120.816 7.33955 120.902 6.99209 120.902 6.60103V1.02197Z" fill="#222222"/>
<path d="M102.004 2.14454V1.02197H108.693V2.14454H105.996V9.66486H104.696V2.14454H102.004Z" fill="#222222"/>
<path d="M95.6982 3.83211H94.3815C94.3309 3.55077 94.2367 3.30319 94.0988 3.08936C93.9609 2.87554 93.7921 2.69408 93.5924 2.54496C93.3926 2.39585 93.169 2.28331 92.9214 2.20735C92.6766 2.13139 92.4164 2.09341 92.1406 2.09341C91.6427 2.09341 91.1967 2.2186 90.8028 2.469C90.4118 2.7194 90.1023 3.08655 89.8744 3.57046C89.6493 4.05437 89.5368 4.6452 89.5368 5.34293C89.5368 6.04629 89.6493 6.63993 89.8744 7.12384C90.1023 7.60775 90.4132 7.9735 90.8071 8.22108C91.2009 8.46866 91.6441 8.59245 92.1364 8.59245C92.4093 8.59245 92.6682 8.55588 92.9129 8.48273C93.1605 8.40677 93.3842 8.29564 93.5839 8.14934C93.7837 8.00304 93.9525 7.82438 94.0904 7.61338C94.231 7.39956 94.3281 7.15479 94.3815 6.87907L95.6982 6.88329C95.6279 7.30812 95.4914 7.69919 95.2889 8.05649C95.0891 8.41099 94.8317 8.71765 94.5166 8.97649C94.2043 9.23251 93.847 9.43086 93.4447 9.57153C93.0423 9.7122 92.6035 9.78254 92.128 9.78254C91.3796 9.78254 90.7128 9.60529 90.1276 9.2508C89.5424 8.89349 89.081 8.38285 88.7434 7.71888C88.4086 7.05491 88.2412 6.26293 88.2412 5.34293C88.2412 4.42012 88.41 3.62814 88.7476 2.96698C89.0852 2.30301 89.5466 1.79377 90.1318 1.43928C90.717 1.08197 91.3824 0.90332 92.128 0.90332C92.5866 0.90332 93.0142 0.969436 93.4109 1.10167C93.8104 1.23109 94.1691 1.4224 94.487 1.67561C94.805 1.92601 95.068 2.23267 95.2762 2.5956C95.4844 2.95573 95.6251 3.36789 95.6982 3.83211Z" fill="#222222"/>
<path d="M76.1836 9.66486V1.02197H81.6023V2.14454H77.4876V4.77792H81.3195V5.89626H77.4876V8.5423H81.6529V9.66486H76.1836Z" fill="#222222"/>
<path d="M62.8477 2.14454V1.02197H69.5366V2.14454H66.8399V9.66486H65.5401V2.14454H62.8477Z" fill="#222222"/>
<path d="M56.1927 1.02197V9.66486H54.8887V1.02197H56.1927Z" fill="#222222"/>
<path d="M40.8975 9.66486V1.02197H42.2015V4.77792H46.5103V1.02197H47.8185V9.66486H46.5103V5.89626H42.2015V9.66486H40.8975Z" fill="#222222"/>
<path d="M34.1631 3.83211H32.8464C32.7957 3.55077 32.7015 3.30319 32.5636 3.08936C32.4258 2.87554 32.257 2.69408 32.0572 2.54496C31.8575 2.39585 31.6338 2.28331 31.3862 2.20735C31.1414 2.13139 30.8812 2.09341 30.6055 2.09341C30.1075 2.09341 29.6616 2.2186 29.2677 2.469C28.8766 2.7194 28.5671 3.08655 28.3393 3.57046C28.1142 4.05437 28.0016 4.6452 28.0016 5.34293C28.0016 6.04629 28.1142 6.63993 28.3393 7.12384C28.5671 7.60775 28.878 7.9735 29.2719 8.22108C29.6658 8.46866 30.1089 8.59245 30.6013 8.59245C30.8742 8.59245 31.133 8.55588 31.3778 8.48273C31.6254 8.40677 31.849 8.29564 32.0488 8.14934C32.2485 8.00304 32.4173 7.82438 32.5552 7.61338C32.6959 7.39956 32.7929 7.15479 32.8464 6.87907L34.1631 6.88329C34.0927 7.30812 33.9563 7.69919 33.7537 8.05649C33.554 8.41099 33.2965 8.71765 32.9814 8.97649C32.6691 9.23251 32.3118 9.43086 31.9095 9.57153C31.5072 9.7122 31.0683 9.78254 30.5928 9.78254C29.8444 9.78254 29.1777 9.60529 28.5925 9.2508C28.0073 8.89349 27.5459 8.38285 27.2083 7.71888C26.8735 7.05491 26.7061 6.26293 26.7061 5.34293C26.7061 4.42012 26.8749 3.62814 27.2125 2.96698C27.5501 2.30301 28.0115 1.79377 28.5967 1.43928C29.1819 1.08197 29.8473 0.90332 30.5928 0.90332C31.0514 0.90332 31.4791 0.969436 31.8758 1.10167C32.2753 1.23109 32.634 1.4224 32.9519 1.67561C33.2698 1.92601 33.5329 2.23267 33.7411 2.5956C33.9493 2.95573 34.0899 3.36789 34.1631 3.83211Z" fill="#222222"/>
<path d="M14.1484 9.66486V1.02197H17.2292C17.8988 1.02197 18.4544 1.13732 18.8961 1.36803C19.3406 1.59873 19.6726 1.91805 19.8921 2.326C20.1115 2.73114 20.2212 3.19958 20.2212 3.73132C20.2212 4.26024 20.1101 4.72587 19.8879 5.12819C19.6684 5.5277 19.3364 5.83858 18.8919 6.06084C18.4502 6.28311 17.8945 6.39424 17.2249 6.39424H14.8912V5.27168H17.1068C17.5288 5.27168 17.872 5.21119 18.1365 5.09021C18.4038 4.96923 18.5993 4.79339 18.7231 4.56269C18.8469 4.33199 18.9088 4.05486 18.9088 3.73132C18.9088 3.40496 18.8455 3.12221 18.7189 2.88306C18.5951 2.64392 18.3995 2.46105 18.1323 2.33444C17.8678 2.20502 17.5203 2.14032 17.0899 2.14032H15.4525V9.66486H14.1484ZM18.415 5.76543L20.5504 9.66486H19.0649L16.9717 5.76543H18.415Z" fill="#222222"/>
<path d="M1.38617 9.66486H0.00195312L3.11221 1.02197H4.61881L7.72907 9.66486H6.34485L3.90138 2.59187H3.83386L1.38617 9.66486ZM1.61827 6.28029H6.10853V7.37754H1.61827V6.28029Z" fill="#222222"/>
</svg>
