<svg width="165" height="58" viewBox="0 0 165 58" fill="none" xmlns="http://www.w3.org/2000/svg">
<path d="M158.637 44.8819V24.6124H164.263V44.8819H158.637ZM161.463 21.9996C160.627 21.9996 159.909 21.7225 159.311 21.1682C158.721 20.6052 158.426 19.9322 158.426 19.1492C158.426 18.375 158.721 17.7108 159.311 17.1566C159.909 16.5935 160.627 16.312 161.463 16.312C162.3 16.312 163.013 16.5935 163.603 17.1566C164.201 17.7108 164.501 18.375 164.501 19.1492C164.501 19.9322 164.201 20.6052 163.603 21.1682C163.013 21.7225 162.3 21.9996 161.463 21.9996Z" fill="black" fill-opacity="0.87"/>
<path d="M142.611 39.0496L142.625 32.3063H143.443L149.941 24.6129H156.399L147.669 34.8004H146.336L142.611 39.0496ZM137.514 44.8824V17.8564H143.14V44.8824H137.514ZM150.192 44.8824L144.223 36.0541L147.973 32.082L156.782 44.8824H150.192Z" fill="black" fill-opacity="0.87"/>
<path d="M127.906 44.8819V24.6124H133.532V44.8819H127.906ZM130.732 21.9996C129.895 21.9996 129.178 21.7225 128.579 21.1682C127.989 20.6052 127.694 19.9322 127.694 19.1492C127.694 18.375 127.989 17.7108 128.579 17.1566C129.178 16.5935 129.895 16.312 130.732 16.312C131.568 16.312 132.281 16.5935 132.871 17.1566C133.47 17.7108 133.769 18.375 133.769 19.1492C133.769 19.9322 133.47 20.6052 132.871 21.1682C132.281 21.7225 131.568 21.9996 130.732 21.9996Z" fill="black" fill-opacity="0.87"/>
<path d="M110.849 33.1641V44.8824H105.223V17.8564H110.69V28.1891H110.928C111.386 26.9926 112.125 26.0557 113.146 25.3783C114.168 24.6921 115.449 24.349 116.99 24.349C118.398 24.349 119.626 24.6569 120.674 25.2727C121.731 25.8798 122.549 26.7551 123.13 27.8988C123.72 29.0337 124.011 30.3929 124.002 31.9764V44.8824H118.376V32.9793C118.385 31.7301 118.068 30.758 117.425 30.063C116.791 29.368 115.902 29.0205 114.758 29.0205C113.992 29.0205 113.314 29.1832 112.724 29.5087C112.143 29.8342 111.685 30.3093 111.35 30.9339C111.025 31.5497 110.857 32.2931 110.849 33.1641Z" fill="black" fill-opacity="0.87"/>
<path d="M93.0826 45.2793C91.0048 45.2793 89.2176 44.8395 87.7209 43.9597C86.2329 43.0712 85.0884 41.8395 84.2872 40.2648C83.4948 38.69 83.0986 36.8777 83.0986 34.8279C83.0986 32.7517 83.4992 30.9306 84.3004 29.3647C85.1104 27.7899 86.2594 26.5627 87.7473 25.6829C89.2352 24.7944 91.0048 24.3501 93.0562 24.3501C94.8259 24.3501 96.3754 24.6712 97.7049 25.3134C99.0343 25.9556 100.086 26.8574 100.861 28.0187C101.636 29.1799 102.063 30.5435 102.142 32.1095H96.8332C96.6836 31.0978 96.2874 30.284 95.6447 29.6682C95.0108 29.0436 94.1788 28.7312 93.1487 28.7312C92.277 28.7312 91.5155 28.9688 90.864 29.4438C90.2213 29.9101 89.7194 30.5919 89.3584 31.4893C88.9975 32.3866 88.817 33.4731 88.817 34.7487C88.817 36.042 88.9931 37.1417 89.3452 38.0478C89.7062 38.9539 90.2125 39.6445 90.864 40.1196C91.5155 40.5947 92.277 40.8322 93.1487 40.8322C93.7914 40.8322 94.3681 40.7002 94.8787 40.4363C95.3982 40.1724 95.8252 39.7897 96.1597 39.2882C96.5031 38.778 96.7276 38.1666 96.8332 37.454H102.142C102.054 39.0023 101.632 40.3659 100.874 41.5448C100.126 42.7149 99.0915 43.6298 97.7709 44.2896C96.4503 44.9494 94.8875 45.2793 93.0826 45.2793Z" fill="black" fill-opacity="0.87"/>
<path d="M70.167 44.883V24.6136H75.6212V28.1502H75.8325C76.2023 26.8921 76.823 25.942 77.6946 25.2998C78.5662 24.6487 79.5699 24.3232 80.7057 24.3232C80.9874 24.3232 81.2911 24.3408 81.6169 24.376C81.9427 24.4112 82.2288 24.4596 82.4753 24.5212V29.5094C82.2112 29.4302 81.8458 29.3598 81.3792 29.2982C80.9126 29.2366 80.4856 29.2059 80.0982 29.2059C79.2706 29.2059 78.531 29.3862 77.8795 29.7469C77.2368 30.0988 76.7261 30.5915 76.3476 31.2249C75.9778 31.8583 75.7929 32.5885 75.7929 33.4155V44.883H70.167Z" fill="black" fill-opacity="0.87"/>
<path d="M54.9022 45.2661C53.608 45.2661 52.4547 45.0418 51.4422 44.5931C50.4297 44.1357 49.6285 43.4627 49.0386 42.5741C48.4575 41.6768 48.167 40.5595 48.167 39.2223C48.167 38.0962 48.3739 37.1505 48.7877 36.3851C49.2015 35.6197 49.765 35.0039 50.4781 34.5376C51.1912 34.0713 52.0012 33.7194 52.9081 33.4819C53.8237 33.2444 54.7834 33.0772 55.7871 32.9804C56.9668 32.8573 57.9177 32.7429 58.6396 32.6373C59.3616 32.523 59.8854 32.3558 60.2112 32.1359C60.5369 31.9159 60.6998 31.5904 60.6998 31.1594V31.0802C60.6998 30.2444 60.4357 29.5978 59.9074 29.1403C59.388 28.6829 58.6484 28.4541 57.6888 28.4541C56.6763 28.4541 55.8707 28.6785 55.272 29.1271C54.6733 29.567 54.2771 30.1213 54.0834 30.7899L48.8801 30.3676C49.1443 29.1359 49.6637 28.0714 50.4385 27.1741C51.2133 26.268 52.2125 25.5729 53.4363 25.0891C54.6689 24.5964 56.0952 24.3501 57.7152 24.3501C58.8421 24.3501 59.9206 24.4821 60.9507 24.746C61.9896 25.0099 62.9097 25.419 63.7109 25.9732C64.5209 26.5275 65.1592 27.2401 65.6258 28.111C66.0924 28.9732 66.3257 30.0069 66.3257 31.2121V44.8835H60.9904V42.0727H60.8319C60.5061 42.7061 60.0703 43.2647 59.5245 43.7486C58.9786 44.2236 58.3227 44.5975 57.5567 44.8703C56.7907 45.1342 55.9059 45.2661 54.9022 45.2661ZM56.5134 41.3864C57.341 41.3864 58.0718 41.2237 58.7057 40.8982C59.3396 40.5639 59.837 40.1152 60.198 39.5522C60.559 38.9891 60.7394 38.3513 60.7394 37.6387V35.4877C60.5634 35.6021 60.3212 35.7077 60.0131 35.8044C59.7137 35.8924 59.3748 35.976 58.9962 36.0552C58.6176 36.1255 58.239 36.1915 57.8605 36.2531C57.4819 36.3059 57.1385 36.3543 56.8304 36.3983C56.17 36.495 55.5934 36.649 55.1003 36.8601C54.6073 37.0713 54.2243 37.3572 53.9514 37.7179C53.6784 38.0698 53.542 38.5097 53.542 39.0375C53.542 39.8029 53.8193 40.3879 54.374 40.7926C54.9374 41.1885 55.6506 41.3864 56.5134 41.3864Z" fill="black" fill-opacity="0.87"/>
<path d="M36.5389 12.7213L0.5 37.9244V44.9251L36.5389 31.0553V12.7213Z" fill="#388E3C"/>
<path d="M36.5397 44.9232V35.3623L20.1455 41.7135L36.5397 44.9232Z" fill="black" fill-opacity="0.87"/>
</svg>
